<?xml version="1.0" encoding="utf-8"?>
<!-- Generator: Adobe Illustrator 24.0.3, SVG Export Plug-In . SVG Version: 6.00 Build 0)  -->
<svg version="1.1"
	 id="svg7384" xmlns:cc="http://creativecommons.org/ns#" xmlns:dc="http://purl.org/dc/elements/1.1/" xmlns:rdf="http://www.w3.org/1999/02/22-rdf-syntax-ns#" xmlns:svg="http://www.w3.org/2000/svg"
	 xmlns="http://www.w3.org/2000/svg" xmlns:xlink="http://www.w3.org/1999/xlink" x="0px" y="0px" viewBox="0 0 14 15"
	 style="enable-background:new 0 0 14 15;" xml:space="preserve">
<style type="text/css">
	.st0{fill:#F1615F;}
	.st1{opacity:0.3;fill:#F1615F;enable-background:new    ;}
</style>
<title  id="title9167">Gnome Symbolic Icon Theme</title>
<path id="path6242" class="st0" d="M7,3.8v10.4l-2.3-2.3l-1.3,2.7c-0.3,0.7-2,0.1-1.5-0.8L3.1,11h-3C0.1,11,7,3.8,7,3.8z"/>
<path id="path23405" class="st0" d="M6.2,0.1C2.3,0.5-0.4,4,0.1,7.8c0.1,1,0.3,1.4,0.3,1.4L2,7.6C1.7,4.8,3.7,2.4,6.4,2
	s5.2,1.6,5.6,4.4c0.3,2.6-1.4,5-4,5.5l0,2c0,0,0.5-0.1,0.6-0.1c3.4-0.8,5.7-4.1,5.3-7.7C13.5,2.3,10-0.4,6.2,0.1L6.2,0.1z"/>
<path id="path11289" class="st1" d="M3.1,6.8V6.6l-0.2,0c0-0.1,0-0.3,0-0.4H2.8L2.7,6.4L2.6,6.4L2.5,6.3l0-0.2l0-0.2l0.2-0.2h0.2
	l0-0.1l0.2,0.1l0.2,0.2l0-0.4l0.3-0.3L3.8,5l0.2-0.1l0.1-0.2l0.3-0.1l0.1-0.2c-0.1,0-0.3,0-0.4,0l0.3-0.1h0.2L5,4.2l0-0.1L4.9,4
	L4.8,4l0-0.1L4.7,3.7L4.5,3.7l0-0.1L4.3,3.5L4.2,3.8l0,0.1L4,4L3.9,4.2l0-0.2L3.5,3.9l0-0.2l0.4-0.2l0.2-0.2l0-0.2L4,3L3.8,3
	L3.8,3.2c0,0-0.1,0-0.2,0C3.1,3.7,2.2,4.6,2,6.3c0,0,0.2,0.3,0.2,0.3l0.3,0.2l0.3,0.1 M6.8,2.5L6.4,2.4L5.9,2.4L5.3,2.6L5.2,2.7
	L5.5,3v0.1L5.4,3.3l0.2,0.4l0.1-0.1l0.2-0.3C6.1,3.2,6.4,3.1,6.6,3L6.8,2.5 M9.3,2.9L9,3L8.8,3.1v0.1L8.4,3.5l0.1,0.3l0.2-0.2
	l0.1,0.2L9,3.9l0.1-0.3L9,3.5l0.1-0.1l0.2-0.2h0.1L9.3,3.4v0.2c0.1,0,0.2-0.1,0.2-0.1L9.3,3.7v0.1L9,4.1L8.7,4V3.9L8.6,3.9l0.1,0.2
	H8.4L8.3,4.3L8.1,4.5L8,4.5v0.2l0,0.2h0v0.5l0.1,0l0.1-0.2L8.4,5l0-0.1l0.3-0.1L8.8,5L9,5.1L8.9,5.3l0.2,0l0.1-0.2L9,4.8H9L9.3,5
	l0,0.2l0.2,0.2l0.1-0.3l0.1,0c0.1,0.1,0.2,0.2,0.2,0.3h0.3l0.2,0.1l-0.1,0.1l-0.2,0.2H9.8L9.5,5.7H9.3L9.2,5.9L8.8,5.5L8.6,5.4
	L8.2,5.5L8,5.6V8l0,0l0.2-0.2L8.4,8h0.3l0.1,0.2L8.7,8.4l0.2,0.2V9L9,9.2L8.9,9.5c0,0.2,0,0.3,0,0.5c0.1,0.2,0.1,0.4,0.2,0.7L9.2,11
	v0.2h0.1L9.6,11h0.2l0.4-0.4l0-0.2l0.2-0.2L10.2,10l0.2-0.2l0.2-0.1l0.1-0.1l-0.1-0.2V8.7l0.2-0.4l0.2-0.2l0.2-0.6V7.4
	c-0.1,0-0.2,0-0.3,0c-0.1,0-0.1,0-0.2,0c-0.1-0.3-0.2-0.5-0.3-0.8l-0.2-0.2l-0.1-0.3l0.1-0.1l0.2,0.2l0.2,0.6l0.2,0.2l-0.1,0.2
	L11,7.4l0.2-0.2L11.5,7l0.2-0.2V6.6c0-0.1-0.1-0.1-0.1-0.2l-0.2,0.2l-0.1-0.2l-0.2-0.1V6l0.2,0.2l0.2,0c0.1,0.1,0.2,0.2,0.3,0.3
	L12,6.3c0-0.2-0.2-1-0.6-1.8c-0.4-0.7-1.2-1.4-1.2-1.4l-0.1,0.1L9.9,3.4L9.7,3.2h0.2l0.1-0.1L9.6,3L9.3,2.9L9.3,2.9z"/>
</svg>
