<?xml version="1.0" encoding="UTF-8" standalone="no"?>
<svg
   xmlns:dc="http://purl.org/dc/elements/1.1/"
   xmlns:cc="http://creativecommons.org/ns#"
   xmlns:rdf="http://www.w3.org/1999/02/22-rdf-syntax-ns#"
   xmlns:svg="http://www.w3.org/2000/svg"
   xmlns="http://www.w3.org/2000/svg"
   xmlns:sodipodi="http://sodipodi.sourceforge.net/DTD/sodipodi-0.dtd"
   xmlns:inkscape="http://www.inkscape.org/namespaces/inkscape"
   id="svg6"
   version="1.1"
   width="512pt"
   viewBox="0 -21 512 512"
   height="512pt"
   sodipodi:docname="configura-cloud.svg"
   inkscape:version="0.92.3 (2405546, 2018-03-11)">
  <sodipodi:namedview
     pagecolor="#ffffff"
     bordercolor="#666666"
     borderopacity="1"
     objecttolerance="10"
     gridtolerance="10"
     guidetolerance="10"
     inkscape:pageopacity="0"
     inkscape:pageshadow="2"
     inkscape:window-width="1280"
     inkscape:window-height="680"
     id="namedview7"
     showgrid="false"
     inkscape:zoom="0.34570313"
     inkscape:cx="341.33333"
     inkscape:cy="341.33333"
     inkscape:window-x="0"
     inkscape:window-y="24"
     inkscape:window-maximized="1"
     inkscape:current-layer="svg6" />
  <metadata
     id="metadata12">
    <rdf:RDF>
      <cc:Work
         rdf:about="">
        <dc:format>image/svg+xml</dc:format>
        <dc:type
           rdf:resource="http://purl.org/dc/dcmitype/StillImage" />
        <dc:title></dc:title>
      </cc:Work>
    </rdf:RDF>
  </metadata>
  <defs
     id="defs10" />
  <rect
     style="fill:#ffffff;fill-opacity:1;stroke:#ffffff;stroke-width:6.10700893;stroke-miterlimit:4;stroke-dasharray:none;stroke-opacity:1"
     id="rect814"
     width="505.89297"
     height="505.89297"
     x="3.0535045"
     y="-17.946495" />
  <path
     style="fill:#ff6600;fill-opacity:0.94117647"
     id="path2"
     d="m398.355469 83.777344c-28.007813-51.179688-82.878907-83.777344-142.355469-83.777344-75.625 0-141.207031 52.585938-157.800781 124.351562-55.105469 5.804688-98.199219 52.097657-98.199219 108.183594 0 59.988282 49.324219 108.796875 109.910156 108.796875h2.324219c-2.859375-12.691406-1.109375-26.410156 5.804687-38.398437l17.257813-29.867188c9.492187-16.449218 27.199219-26.667968 46.207031-26.667968 2.582032 0 5.164063.195312 7.679688.554687 7.914062-19.839844 27.328125-33.621094 49.558594-33.621094h34.496093c22.226563 0 41.640625 13.761719 49.554688 33.621094 2.539062-.359375 5.101562-.554687 7.683593-.554687 19.007813 0 36.710938 10.21875 46.207032 26.667968l17.257812 29.867188c6.65625 11.519531 8.425782 24.617187 6.015625 36.90625 63.253907-9.066406 112.042969-62.890625 112.042969-127.9375 0-65.40625-49.214844-120-113.644531-128.125zm0 0" />
  <path
     style="fill:#ff6600;fill-opacity:0.94117647"
     id="path4"
     d="m334.996094 372.671875c.429687-3.304687 1.003906-6.59375 1.003906-10.003906 0-3.4375-.597656-6.699219-1.003906-10.007813l19.222656-14.546875c4.289062-3.242187 5.484375-9.175781 2.792969-13.847656l-17.257813-29.867187c-2.6875-4.648438-8.425781-6.589844-13.375-4.5l-22.121094 9.324218c-5.398437-4.117187-11.136718-7.746094-17.472656-10.390625l-2.945312-23.488281c-.683594-5.332031-5.207032-9.34375-10.582032-9.34375h-34.496093c-5.375 0-9.917969 4.011719-10.582031 9.34375l-2.941407 23.488281c-6.335937 2.644531-12.097656 6.292969-17.472656 10.390625l-22.121094-9.324218c-4.972656-2.089844-10.710937-.171876-13.398437 4.5l-17.238282 29.867187c-2.6875 4.652344-1.492187 10.582031 2.792969 13.847656l19.222657 14.546875c-.425782 3.308594-1.023438 6.570313-1.023438 10.007813 0 3.433593.597656 6.699219 1.003906 10.003906l-19.222656 14.550781c-4.289062 3.242188-5.484375 9.171875-2.792969 13.84375l17.257813 29.867188c2.6875 4.652344 8.425781 6.589844 13.375 4.5l22.121094-9.34375c5.398437 4.117187 11.136718 7.746094 17.472656 10.390625l2.945312 23.488281c.683594 5.355469 5.207032 9.363281 10.582032 9.363281h34.496093c5.375 0 9.917969-4.007812 10.582031-9.34375l2.941407-23.488281c6.335937-2.644531 12.097656-6.292969 17.472656-10.386719l22.121094 9.320313c4.953125 2.089844 10.691406.171875 13.378906-4.5l17.257813-29.886719c2.6875-4.652344 1.492187-10.582031-2.792969-13.847656zm-78.996094 32.660156c-23.574219 0-42.667969-19.09375-42.667969-42.664062 0-23.574219 19.09375-42.667969 42.667969-42.667969s42.667969 19.09375 42.667969 42.667969c0 23.570312-19.09375 42.664062-42.667969 42.664062zm0 0" />
</svg>
